<?xml version="1.0" encoding="UTF-8"?>
<!-- Created with Inkscape (http://www.inkscape.org/) -->
<svg width="86.38mm" height="18.358mm" version="1.1" viewBox="0 0 86.380417 18.357933" xmlns="http://www.w3.org/2000/svg" xmlns:cc="http://creativecommons.org/ns#" xmlns:dc="http://purl.org/dc/elements/1.1/" xmlns:rdf="http://www.w3.org/1999/02/22-rdf-syntax-ns#" xmlns:xlink="http://www.w3.org/1999/xlink">
 <defs>
  <path id="path-2-7" d="m48 30c-9.9411 0-18 8.0589-18 18v714c0 9.9411 8.0589 18 18 18h854c9.9411 0 18-8.0589 18-18v-714c0-9.9411-8.0589-18-18-18zm0-30h854c26.51 0 48 21.49 48 48v714c0 26.51-21.49 48-48 48h-854c-26.51 0-48-21.49-48-48v-714c0-26.51 21.49-48 48-48z"/>
  <filter id="filter-3-4" x="-.024" y="-.017" width="1.047" height="1.056">
   <feOffset dx="0" dy="9" in="SourceAlpha" result="shadowOffsetOuter1"/>
   <feGaussianBlur in="shadowOffsetOuter1" result="shadowBlurOuter1" stdDeviation="6"/>
   <feColorMatrix in="shadowBlurOuter1" values="0 0 0 0 0   0 0 0 0 0   0 0 0 0 0  0 0 0 0.121178668 0"/>
  </filter>
  <linearGradient id="linearGradient3856" x1="438.61" x2="438.61" y2="877.21" gradientTransform="scale(1.083 .92338)" gradientUnits="userSpaceOnUse">
   <stop stop-color="#DCE0E1" offset="0"/>
   <stop stop-color="#848484" offset="1"/>
  </linearGradient>
 </defs>
 <metadata>
  <rdf:RDF>
   <cc:Work rdf:about="">
    <dc:format>image/svg+xml</dc:format>
    <dc:type rdf:resource="http://purl.org/dc/dcmitype/StillImage"/>
    <dc:title/>
   </cc:Work>
  </rdf:RDF>
 </metadata>
 <g transform="translate(-4.1693 -4.0178)">
  <g transform="matrix(.26458 0 0 .26458 23.679 -146.39)" font-family="sans-serif" font-size="40px" letter-spacing="0px" word-spacing="0px" style="line-height:1.25" aria-label="kmder">
   <g transform="matrix(.081117 0 0 .081117 -74.89 560.91)" fill="none" fill-rule="evenodd">
    <g id="monokai-pro">
     <g id="icon" transform="translate(37,107)">
      <g fill-rule="nonzero">
       <use width="100%" height="100%" fill="#000000" filter="url(#filter-3-4)" xlink:href="#path-2-7"/>
       <use width="100%" height="100%" fill="url(#linearGradient3856)" fill-rule="evenodd" xlink:href="#path-2-7"/>
      </g>
      <rect x="30" y="30" width="890" height="750" rx="18" fill="#2d2a2e"/>
      <path d="m78 78v654h794v-654zm-30-48h854c9.9411 0 18 8.0589 18 18v714c0 9.9411-8.0589 18-18 18h-854c-9.9411 0-18-8.0589-18-18v-714c0-9.9411 8.0589-18 18-18z" fill="#000" fill-rule="nonzero"/>
      <rect x="118" y="150" width="190" height="60" rx="9" fill="#78dce8"/>
      <rect x="118" y="350" width="300" height="60" rx="9" fill="#a9dc76"/>
      <rect x="458" y="350" width="120" height="60" rx="9" fill="#ff6188"/>
      <rect x="118" y="250" width="400" height="60" rx="9" fill="#ffd866"/>
     </g>
    </g>
   </g>
   <path d="m29.031 617.35h-2.375v17.917h-14.083v-65h14.083v36.458h1.875l9.625-16.542h16.125l-14 20.375 16.208 24.708h-16.042z"/>
   <path d="m72.489 590.19 0.5 5.9583q2.125-3.25 5.3333-5 3.25-1.7917 7.4167-1.7917 4.2083 0 7.25 1.8333 3.0417 1.8333 4.5833 5.5833 2.0833-3.5417 5.3333-5.4583 3.2917-1.9583 7.6667-1.9583 6.5833 0 10.333 4.5417 3.7917 4.5 3.7917 13.917v27.458h-14.125v-27.458q0-4.375-1.375-6-1.3333-1.625-4.0417-1.625-2.0417 0-3.625 0.75-1.5417 0.70833-2.625 2 0 0.70833 0.04167 1.25 0.04167 0.5 0.04167 1v30.083h-14.083v-27.458q0-4.375-1.3333-6-1.3333-1.625-4.125-1.625-1.9167 0-3.5 0.75-1.5417 0.70833-2.625 2v32.333h-14.083v-45.083z"/>
   <path d="m130.86 612.81q0-10.542 4.5833-17 4.625-6.4583 13-6.4583 3.125 0 5.625 1.4583 2.5417 1.4167 4.5417 4.0833v-24.625h14.083v65h-12.208l-1-5.5417q-2.0833 3.125-4.875 4.7917-2.75 1.625-6.25 1.625-8.3333 0-12.917-6.1667-4.5833-6.1667-4.5833-16.292zm14.083 0.875q0 5.5 1.5833 8.5833 1.625 3.0417 5.4167 3.0417 2.2083 0 3.875-0.79167 1.7083-0.83333 2.7917-2.4167v-18.208q-1.0833-1.7917-2.75-2.75-1.6667-0.95833-3.8333-0.95833-3.75 0-5.4167 3.4583-1.6667 3.4583-1.6667 9.1667z"/>
   <path d="m201.32 636.15q-9.9583 0-15.917-6.25-5.9167-6.25-5.9167-15.667v-1.5833q0-10.292 5.375-16.792 5.4167-6.5417 15.458-6.5 9.1667 0 14.375 5.5 5.2083 5.5 5.2083 14.917v7.375h-25.75l-0.0833 0.25q0.45833 3.4583 2.8333 5.7083 2.375 2.2083 6.3333 2.2083 4 0 6.375-0.625 2.4167-0.625 6.0833-2.1667l3.3333 8.5833q-2.9583 2.1667-7.6667 3.625-4.6667 1.4167-10.042 1.4167zm-1-35.958q-3.0417 0-4.5833 2.1667-1.5 2.1667-1.8333 5.7917l0.125 0.20834h12.125v-1.0833q0-3.4167-1.4167-5.25-1.4167-1.8333-4.4167-1.8333z"/>
   <path d="m251.36 602.6-5.125-0.0417q-2.4167 0-3.9583 0.83333-1.5417 0.79167-2.2917 2.2917v29.583h-14.083v-45.083h13.25l0.5 6.625q1.4167-3.5417 3.75-5.5t5.4583-1.9583q1 0 2.0417 0.16666 1.0417 0.125 1.8333 0.33334z"/>
  </g>
 </g>
</svg>
